<svg version="1.2" xmlns="http://www.w3.org/2000/svg" viewBox="0 0 1000 1000" width="50" height="50">
	<title>4729086</title>
	<style>
		.s0 { fill: #f9f4f4 } 
	</style>
	<g id="BACKGROUND">
	</g>
	<g id="OBJECTS">
		<g id="&lt;Group&gt;">
			<g id="&lt;Group&gt;">
				<g id="&lt;Group&gt;">
					<g id="&lt;Group&gt;">
						<path id="&lt;Path&gt;" class="s0" d="m411.9 514.3c28.6 0 52.1 20.8 51.9 46.5 0.1 34.9-2.8 71.6-9.2 105.9-4.1 23.2-33.3 37.5-52.3 25.9q-0.3-0.2-0.5-0.3c-8.8-5.4-13.4-15.3-12.1-25.9 5.2-45.8 7-92 6.6-138.1-0.1-7.7 6.9-14 15.6-14z"/>
						<path id="&lt;Path&gt;" class="s0" d="m608.3 73.4c-4.3 57.9-5.1 115.2-2.9 173.2 1.4 14.3-10 25.9-25.2 25.9-20.5 0-39.8-15.5-41.2-34.7-4-70.6-2-137.4 10.9-207.1 2.5-11.4 16.3-19.1 26.1-14.7q0.3 0.1 0.6 0.3c21.4 9.7 34 32.2 31.7 57.1z"/>
						<path id="&lt;Path&gt;" class="s0" d="m706.3 206.3q0 153.7 0 307.5c0.9 32.3-7.4 71.5-21.9 100.2-8.3 16.4-30.1 9.9-29.4-9.1 1-36.2 1.4-72.2 1.1-108.4-0.1-5.4-4.7-9.1-9.1-7.2q-3.9 1.7-7.8 3.3c-4.1 1.2-6.9 5.5-6.7 10.3 0.5 48.3-0.7 95.9-4.3 144.1-2.3 24.7-19.4 47.1-43.7 56.7-0.1 0-0.2 0.1-0.4 0.1-7.8 3.1-16 5.8-24.1 8.1-12.7 3.6-29 6-29 6-6.3 0.8-12.7 1.4-19 1.8-4 0.2-8 0.4-12 0.4-16.7 0-25.7-13.6-21.4-30.3 44.7-220.6-60.5-431.1-19.7-651.8 1.6-6.8-3.6-11.5-10.3-9.3q-4 1.4-7.9 2.8c-4.2 1.3-7.6 5.1-8.4 9.3-23 143.2 3.9 274.2 25.4 415.6 2.4 16.7-10.7 30.2-28.9 30.2-18.2 0-34.2-13.5-35.9-30.2-3.7-35.5-8.1-71-12.4-106.4-0.7-6.1-7-9.8-12.7-7.6-3.8 1.4-7.5 2.8-12.2 4.6-1.4 0.5-2.3 1.9-2.2 3.4 7.9 87.7 12.6 172.8 9.9 261-0.7 16.9-27.1 23-35.7 8.7-21.5-35.4-29.2-63.3-33.9-106.3q0-153.8 0-307.5c-0.9-32.5 7.5-72 22.3-100.9 8.2-16.2 29.7-9.8 29 9-1.9 65.5-0.5 129.5 4.8 194.6 0.3 4.2 4.6 6.9 8.6 5.4 1.5-0.6 3-1.2 4.5-1.8 7.4-2.9 11.9-10.4 11.1-18.3-7.5-74.2-7.8-146.5-2.2-221.2 2.3-24.7 19.3-46.9 43.4-56.6 8-3.2 16.3-6 24.8-8.3 0 0 13.1-4.3 29-6 6.1-0.9 12.3-1.4 18.4-1.8q6.3-0.4 12.6-0.4c16.7 0 25.6 13.6 21.4 30.3-44.6 219.7 59.7 429.2 20.3 649-1.6 6.9 3.7 11.7 10.5 9.3 8.8-3 16-11.1 17.6-20.1 16.3-116 2.3-223.6-17.1-338.1-2.8-16.7 9-30.3 26.5-30.3 17.5 0 33.5 13.6 35.5 30.3 5.1 41.9 10.3 83.8 14.7 125.7 0.5 4.3 4.6 7.3 8.1 5.9 2.1-0.9 3.2-1.4 5.4-2.2 6.6-2.8 10.6-10.2 10-18.4-10.1-117.8-20.3-232.7-15.3-351.1 0.6-10.9 16.2-15.5 23.2-6.8 9.1 11.3 19.7 26.3 27.6 43.9 18 40.2 17.9 78.9 17.9 78.9z"/>
					</g>
				</g>
				<path id="&lt;Compound Path&gt;" fill-rule="evenodd" class="s0" d="m600.3 1000h-204.5v-26.7h88.9v-181.5c-144.5-8-257.5-127.3-257.5-272.3v-92.7h26.6v92.7c0 135.7 110.5 246.1 246.2 246.1 135.7 0 246.2-110.4 246.2-246.1v-92.7h26.6v92.7c0 71-27.3 138.3-76.8 189.5-49 50.6-114.5 80.1-184.6 83v181.3h88.9zm-201.1-3.3h197.8v-20h-88.9v-187.9l1.6-0.1c69.8-2.4 135.1-31.6 183.9-82 48.9-50.5 75.9-117 75.9-187.2v-89.3h-20v89.3c0 137.6-111.9 249.5-249.5 249.5-137.6 0-249.5-111.9-249.5-249.5v-89.3h-20v89.3c0 143.8 112.5 262 256 269.1l1.6 0.1v188h-88.9z"/>
			</g>
		</g>
	</g>
</svg>